<svg width="250" height="50" viewBox="0 0 250 50" xmlns="http://www.w3.org/2000/svg">
  <defs>
    <linearGradient id="primaryGrad" x1="0%" y1="0%" x2="100%" y2="100%">
      <stop offset="0%" stop-color="#5F6FFF" />
      <stop offset="100%" stop-color="#3b48db" />
    </linearGradient>
  </defs>

  <g transform="translate(5, 5)">
    <!-- Heart Shape -->
    <path d="M20,38 c0,0 -16,-14.5 -16,-24 c0,-5.5 4.5,-10 10,-10 c4,0 5.5,2 6,4 c0.5,-2 2,-4 6,-4 c5.5,0 10,4.5 10,10 c0,9.5 -16,24 -16,24 z" fill="url(#primaryGrad)"/>
    
    <!-- Medical Cross -->
    <rect x="14" y="11" width="12" height="4" rx="1" fill="#FFFFFF"/>
    <rect x="18" y="7" width="4" height="12" rx="1" fill="#FFFFFF"/>
  </g>

  <!-- Text -->
  <text x="50" y="34" font-family="Outfit, system-ui, sans-serif" font-weight="700" font-size="28" fill="#1F2937" letter-spacing="-0.5">
    Sehat<tspan fill="#5F6FFF">Sathi</tspan>
    <tspan fill="#6B7280" font-size="16" font-weight="500" dx="6">Admin</tspan>
  </text>
  
  <circle cx="240" cy="33" r="3" fill="#10B981"/>
</svg>
